HIERARCHY
ROOT Hips
{
	OFFSET 62.890800 8.863803 43.568401
	CHANNELS 6 Xposition Yposition Zposition Zrotation Xrotation Yrotation
	JOINT Chest
	{
		OFFSET -0.160400 1.630001 7.806301
		CHANNELS 6 Xposition Yposition Zposition Zrotation Xrotation Yrotation
		JOINT Chest2
		{
			OFFSET 0.000000 0.000000 3.197998
			CHANNELS 6 Xposition Yposition Zposition Zrotation Xrotation Yrotation
			JOINT Neck
			{
				OFFSET 0.000000 0.000001 7.440701
				CHANNELS 6 Xposition Yposition Zposition Zrotation Xrotation Yrotation
				JOINT Head
				{
					OFFSET 0.000000 0.000000 2.173901
					CHANNELS 6 Xposition Yposition Zposition Zrotation Xrotation Yrotation
					End Site
					{
						OFFSET 0.000000 0.000001 10.420303
					}
				}
			}
			JOINT LeftCollar
			{
				OFFSET 2.426399 -1.880099 4.759399
				CHANNELS 6 Xposition Yposition Zposition Zrotation Xrotation Yrotation
				JOINT LeftShoulder
				{
					OFFSET 4.420197 0.000000 0.000000
					CHANNELS 6 Xposition Yposition Zposition Zrotation Xrotation Yrotation
					JOINT LeftElbow
					{
						OFFSET 0.000000 -0.000001 -10.347099
						CHANNELS 6 Xposition Yposition Zposition Zrotation Xrotation Yrotation
						JOINT LeftWrist
						{
							OFFSET 0.000000 -0.000001 -12.496300
							CHANNELS 6 Xposition Yposition Zposition Zrotation Xrotation Yrotation
							End Site
							{
								OFFSET 0.000000 0.000000 -2.173901
							}
						}
					}
				}
			}
			JOINT RightCollar
			{
				OFFSET -2.781502 -1.903799 5.072601
				CHANNELS 6 Xposition Yposition Zposition Zrotation Xrotation Yrotation
				JOINT RightShoulder
				{
					OFFSET -4.012100 0.000000 0.000000
					CHANNELS 6 Xposition Yposition Zposition Zrotation Xrotation Yrotation
					JOINT RightElbow
					{
						OFFSET 0.000000 -0.000001 -10.346600
						CHANNELS 6 Xposition Yposition Zposition Zrotation Xrotation Yrotation
						JOINT RightWrist
						{
							OFFSET 0.000000 -0.000001 -12.562599
							CHANNELS 6 Xposition Yposition Zposition Zrotation Xrotation Yrotation
							End Site
							{
								OFFSET 0.000000 0.000000 -2.173901
							}
						}
					}
				}
			}
		}
	}
	JOINT LeftHip
	{
		OFFSET 2.047997 -0.047200 -2.693199
		CHANNELS 6 Xposition Yposition Zposition Zrotation Xrotation Yrotation
		JOINT LeftKnee
		{
			OFFSET 0.000000 -0.000001 -18.824400
			CHANNELS 6 Xposition Yposition Zposition Zrotation Xrotation Yrotation
			JOINT LeftAnkle
			{
				OFFSET 0.000000 -0.000002 -19.078199
				CHANNELS 6 Xposition Yposition Zposition Zrotation Xrotation Yrotation
				End Site
				{
					OFFSET 0.000000 -9.342100 0.000001
				}
			}
		}
	}
	JOINT RightHip
	{
		OFFSET -2.129898 -0.022300 -2.538300
		CHANNELS 6 Xposition Yposition Zposition Zrotation Xrotation Yrotation
		JOINT RightKnee
		{
			OFFSET 0.000000 -0.000001 -18.644600
			CHANNELS 6 Xposition Yposition Zposition Zrotation Xrotation Yrotation
			JOINT RightAnkle
			{
				OFFSET 0.000000 -0.000002 -18.801399
				CHANNELS 6 Xposition Yposition Zposition Zrotation Xrotation Yrotation
				End Site
				{
					OFFSET 0.000000 -8.914600 0.000001
				}
			}
		}
	}
}
MOTION
Frames: 7
Frame Time: 0.041667
68.091797 23.034405 42.955986 -82.635563 32.363639 -2.960856 -0.160401 1.630002 7.806305 -9.094744 20.761880 1.332179 0.000005 0.000009 3.197989 1.952909 -7.869026 0.221980 -0.000001 0.000002 7.440700 4.206979 11.785211 -4.322091 -0.000007 0.000008 2.173909 0.721040 0.226692 2.052398 2.426399 -1.880094 4.759401 -180.119260 172.862116 -177.958407 4.420194 0.000000 0.000001 -19.550539 20.367575 -80.251875 0.000000 -0.000003 -10.347101 535.087620 -163.501738 -176.292237 0.000007 0.000003 -12.496300 -342.207968 -13.403271 364.108587 -2.781498 -1.903799 5.072609 -178.621714 -192.346528 174.496539 -4.012099 -0.000008 0.000001 5.464492 16.039728 441.956461 -0.000004 0.000002 -10.346601 -377.031059 -12.266071 -10.451345 0.000001 0.000010 -12.562587 1504.033009 -11.040160 19.132231 2.047997 -0.047200 -2.693198 439.602013 -37.813331 55.919712 0.000001 0.000003 -18.824408 146.602798 127.950453 -180.161662 0.000003 0.000006 -19.078201 -392.749565 14.041459 2.876900 -2.129900 -0.022296 -2.538299 -436.588424 -39.895067 -50.354699 0.000007 -0.000001 -18.644604 217.047293 125.484153 173.641208 -0.000001 -0.000006 -18.801397 19.538036 16.465178 5.128793
68.805603 23.037901 42.968483 -82.838624 32.668388 -2.936994 -0.160400 1.630008 7.806304 -8.878026 20.736442 1.438113 0.000005 -0.000003 3.197995 1.882407 -7.955030 0.221866 -0.000005 -0.000018 7.440691 4.254466 11.900451 -4.331640 0.000000 0.000005 2.173908 0.693683 0.181231 2.040749 2.426401 -1.880114 4.759386 -180.054947 172.820643 -178.090066 4.420197 0.000012 -0.000004 -19.745134 20.506000 -80.191277 0.000003 0.000005 -10.347097 535.072320 -163.671454 -176.290147 0.000000 0.000002 -12.496299 -341.187811 -13.398426 364.312482 -2.781503 -1.903818 5.072590 -178.593546 -192.328305 174.486280 -4.012098 -0.000005 0.000000 5.639513 16.220977 442.000201 -0.000007 0.000002 -10.346600 -376.786785 -12.213573 -10.283249 -0.000002 -0.000010 -12.562593 1502.950014 -11.293889 18.797618 2.047996 -0.047197 -2.693195 440.380354 -37.519455 56.510458 -0.000008 0.000003 -18.824402 144.783509 127.110176 -179.283327 0.000000 -0.000004 -19.078201 -391.970678 13.926608 2.601941 -2.129900 -0.022289 -2.538297 -435.338882 -40.147541 -49.724457 0.000000 -0.000001 -18.644600 213.764622 126.525320 175.564207 0.000009 -0.000000 -18.801397 20.831913 16.632399 5.828039
69.506104 23.022308 42.976677 -83.336668 32.978370 -2.580769 -0.160402 1.630001 7.806311 -8.430929 20.751081 1.289466 0.000005 0.000014 3.197993 1.752007 -8.090784 0.209810 0.000001 0.000000 7.440704 4.407596 12.040744 -4.239118 -0.000008 -0.000003 2.173901 0.680152 0.114271 2.046785 2.426400 -1.880100 4.759403 -179.946648 172.712617 -178.121006 4.420194 0.000009 -0.000002 -19.854241 20.661075 -80.142680 -0.000000 0.000006 -10.347099 535.082921 -163.805039 -176.280530 -0.000002 -0.000000 -12.496298 -340.810566 -13.299600 364.424552 -2.781501 -1.903803 5.072606 -178.472392 -192.409366 174.588064 -4.012106 -0.000006 0.000000 5.876144 16.303701 442.085743 -0.000001 0.000003 -10.346596 -376.632231 -12.181420 -10.163271 0.000001 -0.000013 -12.562594 1502.014879 -11.521554 18.494697 2.047996 -0.047199 -2.693198 440.979470 -37.475001 56.813510 -0.000005 0.000004 -18.824406 142.912870 126.368526 -178.382507 0.000001 -0.000009 -19.078197 -391.112860 13.657037 2.242201 -2.129899 -0.022295 -2.538297 -434.370689 -40.122485 -49.453524 -0.000006 -0.000004 -18.644598 210.205219 127.800202 177.712260 0.000004 -0.000004 -18.801399 22.512858 16.914969 6.582690
70.181198 22.988514 42.981590 -84.060982 33.265548 -2.253798 -0.160396 1.629995 7.806304 -7.929197 20.777376 1.247630 0.000007 -0.000001 3.197996 1.635461 -8.177216 0.207829 -0.000007 0.000007 7.440696 4.593032 12.108912 -4.069752 -0.000010 0.000008 2.173908 0.677690 0.029121 2.072001 2.426405 -1.880096 4.759398 -179.854932 172.647853 -178.080585 4.420196 -0.000001 -0.000005 -19.897760 20.835622 -80.103188 0.000004 -0.000003 -10.347102 535.110515 -163.914308 -176.269028 -0.000002 0.000000 -12.496300 -340.412366 -13.201757 364.546157 -2.781507 -1.903799 5.072607 -178.341649 -192.475031 174.777765 -4.012098 -0.000005 0.000003 6.163336 16.300246 442.206664 0.000005 -0.000004 -10.346605 -376.624199 -12.161621 -10.100921 -0.000002 -0.000011 -12.562595 1501.296343 -11.729066 18.203127 2.047995 -0.047196 -2.693202 441.395893 -37.361104 56.897453 -0.000000 -0.000001 -18.824404 141.081000 125.745777 -177.536206 0.000000 -0.000003 -19.078197 -390.226958 13.256440 1.843962 -2.129894 -0.022303 -2.538304 -433.679200 -40.147329 -49.442739 0.000003 0.000001 -18.644606 206.681470 129.180256 179.853648 0.000005 -0.000006 -18.801397 24.588657 17.303232 7.138737
70.819000 22.939308 42.984486 -84.962178 33.533176 -1.891733 -0.160402 1.629994 7.806307 -7.368517 20.821347 1.227785 0.000008 -0.000007 3.198000 1.506995 -8.259177 0.205246 -0.000006 0.000005 7.440700 4.827924 12.152812 -3.837069 -0.000004 0.000000 2.173911 0.683644 -0.067237 2.113450 2.426403 -1.880097 4.759388 -179.745963 172.593293 -177.979539 4.420193 -0.000001 0.000004 -19.894943 21.020326 -80.067289 -0.000005 0.000002 -10.347090 535.150075 -164.007322 -176.257430 0.000007 0.000002 -12.496301 -340.006380 -13.106953 364.671641 -2.781500 -1.903798 5.072600 -178.185893 -192.558660 175.052271 -4.012104 -0.000013 -0.000004 6.491026 16.223979 442.345180 0.000002 -0.000005 -10.346594 -376.725012 -12.155676 -10.083997 0.000000 -0.000000 -12.562602 1500.759982 -11.916318 17.914413 2.047996 -0.047195 -2.693197 441.522061 -37.346320 56.725145 -0.000004 0.000002 -18.824404 139.454855 125.322838 -176.667405 0.000003 -0.000003 -19.078203 -389.305811 12.880099 1.348144 -2.129899 -0.022302 -2.538301 -433.426347 -40.093197 -49.804507 -0.000003 -0.000004 -18.644598 203.576192 130.440740 181.800101 -0.000002 -0.000002 -18.801397 26.703219 17.764689 7.693933
71.406502 22.878307 42.987087 -85.971543 33.776706 -1.514820 -0.160402 1.629999 7.806301 -6.779171 20.880115 1.223250 -0.000002 0.000007 3.197996 1.370596 -8.333266 0.202242 -0.000005 -0.000003 7.440714 5.097004 12.175853 -3.561630 -0.000006 0.000011 2.173910 0.694374 -0.168890 2.165893 2.426393 -1.880100 4.759415 -179.622555 172.553979 -177.839165 4.420194 -0.000004 0.000004 -19.867367 21.202270 -80.025392 -0.000007 0.000000 -10.347098 535.203460 -164.093369 -176.245996 0.000008 0.000001 -12.496298 -339.614491 -13.019310 364.794721 -2.781505 -1.903798 5.072614 -178.017461 -192.649447 175.392769 -4.012098 -0.000000 0.000005 6.843982 16.136793 442.481429 -0.000001 0.000003 -10.346603 -376.967074 -12.161308 -10.100831 -0.000001 0.000002 -12.562603 1500.394868 -12.050799 17.736410 2.047993 -0.047204 -2.693192 441.635032 -37.242955 56.489411 -0.000005 -0.000002 -18.824408 138.055294 125.001519 -176.043522 0.000000 -0.000012 -19.078197 -388.625114 12.490226 0.938561 -2.129899 -0.022296 -2.538302 -433.254253 -40.143767 -50.293685 0.000007 -0.000008 -18.644598 200.917664 131.598634 183.381113 -0.000003 -0.000007 -18.801399 28.738441 18.338819 7.957154
71.930397 22.810711 42.990486 -87.027210 33.992441 -1.138120 -0.160395 1.629998 7.806312 -6.188263 20.945462 1.228137 0.000011 0.000003 3.197998 1.231104 -8.396987 0.198806 -0.000008 -0.000004 7.440693 5.388117 12.185853 -3.267618 -0.000002 -0.000002 2.173903 0.705198 -0.267687 2.221833 2.426405 -1.880106 4.759401 -179.494107 172.519841 -177.669394 4.420199 0.000010 0.000008 -19.819735 21.373492 -79.985115 -0.000007 -0.000002 -10.347097 535.277882 -164.172804 -176.232937 0.000001 0.000001 -12.496297 -339.255414 -12.939491 364.907310 -2.781504 -1.903805 5.072597 -177.837048 -192.754946 175.766804 -4.012094 -0.000008 -0.000002 7.196523 16.048916 442.613006 0.000008 0.000009 -10.346599 -377.318747 -12.173108 -10.143413 0.000001 -0.000002 -12.562607 1500.194005 -12.208047 17.461232 2.048001 -0.047197 -2.693195 441.650414 -37.126245 56.159683 -0.000007 -0.000001 -18.824406 137.020097 124.847662 -175.645869 -0.000000 -0.000002 -19.078199 -388.199921 12.144264 0.629137 -2.129897 -0.022299 -2.538295 -433.207316 -40.240503 -50.895827 0.000001 0.000005 -18.644600 198.772876 132.543823 184.628455 -0.000001 -0.000003 -18.801401 30.659616 18.971035 7.942647
